<?xml version="1.0" encoding="utf-8"?>
<svg version="1.1" x="0px" y="0px" viewBox="11.146 2.259 77.814 95.4" style="enable-background:new 0 0 100 100;" xmlns="http://www.w3.org/2000/svg">
  <g>
    <g>
      <path d="M5273.1,2400.1v-2c0-2.8-5-4-9.7-4s-9.7,1.3-9.7,4v2c0,1.8,0.7,3.6,2,4.9l5,4.9c0.3,0.3,0.4,0.6,0.4,1v6.4     c0,0.4,0.2,0.7,0.6,0.8l2.9,0.9c0.5,0.1,1-0.2,1-0.8v-7.2c0-0.4,0.2-0.7,0.4-1l5.1-5C5272.4,2403.7,5273.1,2401.9,5273.1,2400.1z      M5263.4,2400c-4.8,0-7.4-1.3-7.5-1.8v0c0.1-0.5,2.7-1.8,7.5-1.8c4.8,0,7.3,1.3,7.5,1.8C5270.7,2398.7,5268.2,2400,5263.4,2400z" style="fill: rgb(255, 110, 30);"/>
      <path d="M5268.4,2410.3c-0.6,0-1,0.4-1,1c0,0.6,0.4,1,1,1h4.3c0.6,0,1-0.4,1-1c0-0.6-0.4-1-1-1H5268.4z" style="fill: rgb(255, 110, 30);"/>
      <path d="M5272.7,2413.7h-4.3c-0.6,0-1,0.4-1,1c0,0.6,0.4,1,1,1h4.3c0.6,0,1-0.4,1-1C5273.7,2414.1,5273.3,2413.7,5272.7,2413.7z" style="fill: rgb(255, 110, 30);"/>
      <path d="M5272.7,2417h-4.3c-0.6,0-1,0.4-1,1c0,0.6,0.4,1,1,1h4.3c0.6,0,1-0.4,1-1C5273.7,2417.5,5273.3,2417,5272.7,2417z" style="fill: rgb(255, 110, 30);"/>
    </g>
    <g>
      <path d="M50,18.2c2,0,3.7-1.7,3.7-3.7V6.2c0-2.1-1.7-3.7-3.7-3.7c-2,0-3.7,1.7-3.7,3.7v8.3C46.3,16.5,47.9,18.2,50,18.2z" style="fill: rgb(255, 110, 30);"/>
      <path d="M32.4,20.2c0.7,1.2,1.9,1.9,3.2,1.9c0.6,0,1.3-0.2,1.9-0.5c1.8-1,2.4-3.3,1.4-5.1l-4.1-7.2c-1-1.8-3.3-2.4-5.1-1.4     c-1.8,1-2.4,3.3-1.4,5.1L32.4,20.2z" style="fill: rgb(255, 110, 30);"/>
      <path d="M62.6,21.5c0.6,0.3,1.2,0.5,1.9,0.5c1.3,0,2.5-0.7,3.2-1.9l4.1-7.2c1-1.8,0.4-4-1.4-5.1c-1.8-1-4-0.4-5.1,1.4l-4.1,7.2     C60.2,18.2,60.8,20.5,62.6,21.5z" style="fill: rgb(255, 110, 30);"/>
      <ellipse transform="matrix(8.802854e-03 -1 1 8.802854e-03 9.8647 89.3399)" cx="50" cy="39.7" rx="13.8" ry="13.8" style="fill: rgb(255, 110, 30);"/>
      <path d="M84.1,32c-3.4-1.1-7.1,0.8-8.1,4.2l-3.2,9.9c-1.5,4.8-5.1,8.5-9.8,10.2c-2.2,0.8-4.5,1.2-6.8,1.2H43.9     c-2.3,0-4.6-0.4-6.8-1.2c-4.7-1.7-8.3-5.4-9.8-10.2l-3.2-9.9c-1.1-3.4-4.7-5.3-8.1-4.2c-3.4,1.1-5.3,4.7-4.2,8.1l3.2,9.9     c2.8,8.6,9.2,15.3,17.7,18.4c1,0.4,2.1,0.6,3.1,0.8v24.5c0,2,1.7,3.7,3.7,3.7h21.1c2,0,3.7-1.7,3.7-3.7V69.3     c1.1-0.3,2.1-0.5,3.2-0.9c8.5-3.1,14.9-9.8,17.7-18.4l3.2-9.9C89.4,36.7,87.5,33.1,84.1,32z" style="fill: rgb(255, 110, 30);"/>
    </g>
  </g>
  <text style="fill: rgb(255, 110, 30); font-family: &quot;Helvetica Neue&quot;, Helvetica, Arial-Unicode, Arial, sans-serif; font-size: 5px; font-weight: 700; white-space: pre;" x="0" y="115">Created by Adrien Coquet</text>
  <text style="fill: rgb(255, 110, 30); font-family: &quot;Helvetica Neue&quot;, Helvetica, Arial-Unicode, Arial, sans-serif; font-size: 5px; font-weight: 700; white-space: pre;" x="0" y="120">from the Noun Project</text>
</svg>